<svg width="44" height="45" viewBox="0 0 44 45" fill="none" xmlns="http://www.w3.org/2000/svg">
<path d="M12.6507 37.2045L13.2999 37.5894C16.0279 39.2083 19.1555 40.0645 22.3449 40.0662H22.3519C32.1469 40.0662 40.1189 32.096 40.1226 22.3004C40.1242 17.553 38.2776 13.0896 34.9224 9.73131C31.5669 6.37364 27.1057 4.52322 22.3582 4.52125C12.5558 4.52125 4.5838 12.4902 4.5801 22.2858C4.5788 25.6426 5.51782 28.9118 7.29699 31.7401L7.71987 32.4123L5.92418 38.968L12.6507 37.2045ZM0.791016 44.0462L3.82426 32.9705C1.95332 29.7289 0.969069 26.0517 0.97061 22.2848C0.97517 10.4997 10.566 0.911743 22.3523 0.911743C28.0716 0.914208 33.4398 3.14008 37.4766 7.18025C41.513 11.2204 43.7353 16.5907 43.7334 22.3021C43.7284 34.0866 34.1356 43.6764 22.3523 43.6764C22.3528 43.6764 22.3515 43.6764 22.3523 43.6764H22.3432C18.7649 43.6752 15.2488 42.7776 12.126 41.0743L0.791016 44.0462Z" fill="white"/>
<path d="M1.70748 22.2959C1.70619 25.9321 2.6563 29.4821 4.46289 32.6118L1.53442 43.3042L12.4764 40.435C15.4912 42.0779 18.8855 42.9452 22.3399 42.9463H22.3488C33.7247 42.9463 42.9842 33.6893 42.9891 22.3121C42.9913 16.7985 40.8462 11.6148 36.9489 7.71417C33.0523 3.81408 27.87 1.66506 22.3479 1.66248C10.9714 1.66248 1.71241 10.9182 1.70748 22.2959ZM22.3488 42.9463C22.3486 42.9463 22.3484 42.9463 22.3488 42.9463Z" fill="url(#paint0_linear_2130_25)"/>
<path d="M0.970365 22.2898C0.969071 26.0566 1.95332 29.7342 3.82426 32.9754L0.790771 44.0505L12.1254 41.0786C15.2484 42.7817 18.7643 43.6792 22.3426 43.6807H22.3517C34.135 43.6807 43.7279 34.0909 43.7328 22.3064C43.7348 16.5947 41.5125 11.2245 37.476 7.18453C33.4389 3.1446 28.0711 0.918481 22.3517 0.916016C10.566 0.916016 0.974936 10.504 0.970006 22.2891M7.71986 32.417L7.29675 31.7449C5.51758 28.9163 4.57857 25.6472 4.57986 22.2907C4.58375 12.4957 12.5556 4.52613 22.358 4.52613C27.105 4.52798 31.5663 6.37858 34.9221 9.73618C38.2776 13.094 40.1239 17.5578 40.1227 22.3046C40.1183 32.1003 32.1463 40.0705 22.3513 40.0705H22.3443C19.155 40.0686 16.0271 39.2125 13.2993 37.5938L12.6501 37.209L5.92368 38.9725L7.71986 32.417ZM22.3517 43.6807C22.3515 43.6807 22.3513 43.6807 22.3517 43.6807Z" fill="url(#paint1_linear_2130_25)"/>
<path fill-rule="evenodd" clip-rule="evenodd" d="M17.008 13.3532C16.6078 12.4635 16.1866 12.4457 15.8059 12.4301C15.4944 12.4168 15.138 12.4177 14.7821 12.4177C14.4258 12.4177 13.847 12.5514 13.3576 13.086C12.8677 13.6206 11.4875 14.913 11.4875 17.5414C11.4875 20.17 13.4022 22.7099 13.6689 23.0667C13.9361 23.4228 17.3649 28.9893 22.7947 31.1305C27.3077 32.9101 28.226 32.5562 29.2055 32.467C30.185 32.3781 32.3664 31.1751 32.8115 29.9275C33.2567 28.6802 33.2567 27.6109 33.1232 27.3877C32.9897 27.165 32.6334 27.0313 32.0992 26.7643C31.5648 26.4971 28.9383 25.2046 28.4487 25.0263C27.9588 24.8482 27.6027 24.7593 27.2463 25.2941C26.8902 25.8283 25.867 27.0313 25.5552 27.3877C25.2437 27.7447 24.9319 27.7892 24.3977 27.522C23.8633 27.2539 22.1426 26.6904 20.1014 24.8706C18.5132 23.4545 17.4411 21.7058 17.1293 21.1709C16.8177 20.6367 17.096 20.3474 17.3639 20.081C17.6039 19.8416 17.8983 19.4572 18.1655 19.1454C18.4321 18.8334 18.521 18.6108 18.699 18.2544C18.8773 17.8978 18.7882 17.5858 18.6547 17.3186C18.521 17.0514 17.4831 14.4097 17.008 13.3532Z" fill="white"/>
<defs>
<linearGradient id="paint0_linear_2130_25" x1="22.262" y1="43.2998" x2="22.262" y2="1.6581" gradientUnits="userSpaceOnUse">
<stop stop-color="#20B038"/>
<stop offset="1" stop-color="#60D66A"/>
</linearGradient>
<linearGradient id="paint1_linear_2130_25" x1="22.2621" y1="44.0518" x2="22.2621" y2="0.917311" gradientUnits="userSpaceOnUse">
<stop stop-color="#F9F9F9"/>
<stop offset="1" stop-color="white"/>
</linearGradient>
</defs>
</svg>
